{
	"asset": { "version": "2.0", "generator": "THREE.GLTFExporter r180" },
	"scene": 0,
	"scenes": [{ "nodes": [0] }],
	"nodes": [
		{
			"rotation": [-0.7071067811865475, 0, 0, 0.7071067811865476],
			"children": [1, 2, 3, 4, 5, 6, 7, 8, 9, 10, 14, 18, 22, 26, 30]
		},
		{
			"name": "SR6_Base_Beta1A",
			"mesh": 0
		},
		{
			"name": "SR6_Lid_Beta1",
			"mesh": 1
		},
		{
			"name": "SR6_Receiver_Beta1",
			"mesh": 2
		},
		{
			"translation": [14.318, -29.72, 49.325],
			"name": "Pitcher_L",
			"mesh": 3
		},
		{
			"translation": [-14.318, -29.72, 49.325],
			"scale": [-1, 1, 1],
			"name": "Pitcher_R",
			"mesh": 3
		},
		{
			"translation": [-58.5, 0, 49.92],
			"name": "Arm_UR",
			"mesh": 4
		},
		{
			"rotation": [1, 0, 0, 0],
			"translation": [-58.5, 30, 49.92],
			"name": "Arm_LR",
			"mesh": 4
		},
		{
			"rotation": [0, 1, 0, 0],
			"translation": [58.5, 0, 49.92],
			"name": "Arm_UL",
			"mesh": 4
		},
		{
			"rotation": [0, 0, 1, 0],
			"translation": [58.5, 30, 49.92],
			"name": "Arm_LL",
			"mesh": 4
		},
		{
			"name": "Link_UR",
			"children": [11, 12, 13]
		},
		{
			"name": "SR6_Bearing_Main_Link_Beta1",
			"mesh": 5
		},
		{
			"rotation": [0, 1, 0, 0],
			"name": "rodEndBearing",
			"mesh": 6
		},
		{
			"translation": [0, 0, 175],
			"name": "rodEndBearing",
			"mesh": 6
		},
		{
			"name": "Link_LR",
			"children": [15, 16, 17]
		},
		{
			"name": "SR6_Bearing_Main_Link_Beta1",
			"mesh": 5
		},
		{
			"rotation": [0, 1, 0, 0],
			"name": "rodEndBearing",
			"mesh": 6
		},
		{
			"translation": [0, 0, 175],
			"name": "rodEndBearing",
			"mesh": 6
		},
		{
			"name": "Link_UL",
			"children": [19, 20, 21]
		},
		{
			"name": "SR6_Bearing_Main_Link_Beta1",
			"mesh": 5
		},
		{
			"rotation": [0, 1, 0, 0],
			"name": "rodEndBearing",
			"mesh": 6
		},
		{
			"translation": [0, 0, 175],
			"name": "rodEndBearing",
			"mesh": 6
		},
		{
			"name": "Link_LL",
			"children": [23, 24, 25]
		},
		{
			"name": "SR6_Bearing_Main_Link_Beta1",
			"mesh": 5
		},
		{
			"rotation": [0, 1, 0, 0],
			"name": "rodEndBearing",
			"mesh": 6
		},
		{
			"translation": [0, 0, 175],
			"name": "rodEndBearing",
			"mesh": 6
		},
		{
			"name": "PitcherLink_L",
			"children": [27, 28, 29]
		},
		{
			"name": "pitcherLink",
			"mesh": 7
		},
		{
			"rotation": [0, 0.14943813247359922, 0, 0.9887710779360422],
			"translation": [-1.5, 0, 185],
			"name": "rodEndBearing",
			"mesh": 6
		},
		{
			"rotation": [0, 0.9887710779360424, 0, -0.14943813247359908],
			"name": "rodEndBearing",
			"mesh": 6
		},
		{
			"scale": [-1, 1, 1],
			"name": "PitcherLink_R",
			"children": [31, 32, 33]
		},
		{
			"name": "pitcherLink",
			"mesh": 7
		},
		{
			"rotation": [0, 0.14943813247359922, 0, 0.9887710779360422],
			"translation": [-1.5, 0, 185],
			"name": "rodEndBearing",
			"mesh": 6
		},
		{
			"rotation": [0, 0.9887710779360424, 0, -0.14943813247359908],
			"name": "rodEndBearing",
			"mesh": 6
		}
	],
	"materials": [
		{ "pbrMetallicRoughness": { "metallicFactor": 0, "roughnessFactor": 1, "baseColorFactor": [0.01, 0.01, 0.01, 1] } },
		{ "pbrMetallicRoughness": { "metallicFactor": 0, "roughnessFactor": 1, "baseColorFactor": [0.05, 0.08, 0.17, 1] } },
		{ "pbrMetallicRoughness": { "metallicFactor": 1, "roughnessFactor": 0.5, "baseColorFactor": [0.9, 0.9, 0.9, 1] } }
	],
	"meshes": [
		{ "primitives": [{ "mode": 4, "material": 0, "attributes": { "POSITION": 0, "NORMAL": 1 }}] },
		{ "primitives": [{ "mode": 4, "material": 1, "attributes": { "POSITION": 2, "NORMAL": 3 }}] },
		{ "primitives": [{ "mode": 4, "material": 1, "attributes": { "POSITION": 4, "NORMAL": 5 }}] },
		{ "primitives": [{ "mode": 4, "material": 1, "attributes": { "POSITION": 6, "NORMAL": 7 }}] },
		{ "primitives": [{ "mode": 4, "material": 1, "attributes": { "POSITION": 8, "NORMAL": 9 }}] },
		{ "primitives": [{ "mode": 4, "material": 0, "attributes": { "POSITION": 10, "NORMAL": 11 }}] },
		{ "primitives": [{ "mode": 4, "material": 2, "attributes": { "POSITION": 12, "NORMAL": 13 }}] },
		{ "primitives": [{ "mode": 4, "material": 0, "attributes": { "POSITION": 14, "NORMAL": 15 }}] }
	],
	"bufferViews": [
		{
			"buffer": 0,
			"byteOffset": 0,
			"byteLength": 213552,
			"target": 34962,
			"byteStride": 12
		},
		{
			"buffer": 0,
			"byteOffset": 213552,
			"byteLength": 213552,
			"target": 34962,
			"byteStride": 12
		},
		{
			"buffer": 0,
			"byteOffset": 427104,
			"byteLength": 154260,
			"target": 34962,
			"byteStride": 12
		},
		{
			"buffer": 0,
			"byteOffset": 581364,
			"byteLength": 154260,
			"target": 34962,
			"byteStride": 12
		},
		{
			"buffer": 0,
			"byteOffset": 735624,
			"byteLength": 288504,
			"target": 34962,
			"byteStride": 12
		},
		{
			"buffer": 0,
			"byteOffset": 1024128,
			"byteLength": 288504,
			"target": 34962,
			"byteStride": 12
		},
		{
			"buffer": 0,
			"byteOffset": 1312632,
			"byteLength": 73080,
			"target": 34962,
			"byteStride": 12
		},
		{
			"buffer": 0,
			"byteOffset": 1385712,
			"byteLength": 73080,
			"target": 34962,
			"byteStride": 12
		},
		{
			"buffer": 0,
			"byteOffset": 1458792,
			"byteLength": 53568,
			"target": 34962,
			"byteStride": 12
		},
		{
			"buffer": 0,
			"byteOffset": 1512360,
			"byteLength": 53568,
			"target": 34962,
			"byteStride": 12
		},
		{
			"buffer": 0,
			"byteOffset": 1565928,
			"byteLength": 71856,
			"target": 34962,
			"byteStride": 12
		},
		{
			"buffer": 0,
			"byteOffset": 1637784,
			"byteLength": 71856,
			"target": 34962,
			"byteStride": 12
		},
		{
			"buffer": 0,
			"byteOffset": 1709640,
			"byteLength": 12960,
			"target": 34962,
			"byteStride": 12
		},
		{
			"buffer": 0,
			"byteOffset": 1722600,
			"byteLength": 12960,
			"target": 34962,
			"byteStride": 12
		},
		{
			"buffer": 0,
			"byteOffset": 1735560,
			"byteLength": 55152,
			"target": 34962,
			"byteStride": 12
		},
		{
			"buffer": 0,
			"byteOffset": 1790712,
			"byteLength": 55152,
			"target": 34962,
			"byteStride": 12
		}
	],
	"accessors": [
		{
			"bufferView": 0,
			"componentType": 5126,
			"count": 17796,
			"max": [58.38981628417969, 68.00000762939453, 71.42024993896484],
			"min": [-58.210182189941406, -69.01744842529297, -0.07975000143051147],
			"type": "VEC3"
		},
		{
			"bufferView": 1,
			"componentType": 5126,
			"count": 17796,
			"max": [1, 1, 1],
			"min": [-1, -1, -1],
			"type": "VEC3"
		},
		{
			"bufferView": 2,
			"componentType": 5126,
			"count": 12855,
			"max": [58.00000762939453, 68.00001525878906, 77.92028045654297],
			"min": [-58.0000114440918, -69.01744079589844, 37.80995178222656],
			"type": "VEC3"
		},
		{
			"bufferView": 3,
			"componentType": 5126,
			"count": 12855,
			"max": [1, 1, 1],
			"min": [-1, -1, -1],
			"type": "VEC3"
		},
		{
			"bufferView": 4,
			"componentType": 5126,
			"count": 24042,
			"max": [70, 28.00000762939453, 55.000003814697266],
			"min": [-70, -60.12509536743164, -55],
			"type": "VEC3"
		},
		{
			"bufferView": 5,
			"componentType": 5126,
			"count": 24042,
			"max": [1, 1, 1],
			"min": [-1, -1, -1],
			"type": "VEC3"
		},
		{
			"bufferView": 6,
			"componentType": 5126,
			"count": 6090,
			"max": [0.0000019999999949504854, 20.997529983520508, 22.37725067138672],
			"min": [-13.50000286102295, -81.99752807617188, -20.995624542236328],
			"type": "VEC3"
		},
		{
			"bufferView": 7,
			"componentType": 5126,
			"count": 6090,
			"max": [1, 1, 1],
			"min": [-1, -1, -1],
			"type": "VEC3"
		},
		{
			"bufferView": 8,
			"componentType": 5126,
			"count": 4464,
			"max": [-9.999999974752427e-7, 13.978014945983887, 13.979141235351562],
			"min": [-11.000004768371582, -57, -13.979137420654297],
			"type": "VEC3"
		},
		{
			"bufferView": 9,
			"componentType": 5126,
			"count": 4464,
			"max": [1, 1, 1],
			"min": [-1, -1, -1],
			"type": "VEC3"
		},
		{
			"bufferView": 10,
			"componentType": 5126,
			"count": 5988,
			"max": [3.5000040531158447, 15.789434432983398, 158.769287109375],
			"min": [-3.5000030994415283, -8.00000286102295, 17],
			"type": "VEC3"
		},
		{
			"bufferView": 11,
			"componentType": 5126,
			"count": 5988,
			"max": [1, 1, 1],
			"min": [-1, -1, -1],
			"type": "VEC3"
		},
		{
			"bufferView": 12,
			"componentType": 5126,
			"count": 1080,
			"max": [2.7500009536743164, 7.500000953674316, 7.5],
			"min": [-2.7500009536743164, -7.5, -31.051332473754883],
			"type": "VEC3"
		},
		{
			"bufferView": 13,
			"componentType": 5126,
			"count": 1080,
			"max": [1, 0.9807999730110168, 1],
			"min": [-1, -0.9807999730110168, -1],
			"type": "VEC3"
		},
		{
			"bufferView": 14,
			"componentType": 5126,
			"count": 4596,
			"max": [12.346098899841309, 8, 170.21627807617188],
			"min": [-41.55438995361328, -8.000009536743164, 14.945893287658691],
			"type": "VEC3"
		},
		{
			"bufferView": 15,
			"componentType": 5126,
			"count": 4596,
			"max": [0.9876999855041504, 1, 0.9459999799728394],
			"min": [-0.9459999799728394, -1, -0.9459999799728394],
			"type": "VEC3"
		}
	],
	"buffers": [{ "uri": "osr.bin", "byteLength": 1845864 }]
}
